<?xml version="1.0" encoding="UTF-8" standalone="no"?>
<!DOCTYPE svg PUBLIC "-//W3C//DTD SVG 1.1//EN"
 "http://www.w3.org/Graphics/SVG/1.1/DTD/svg11.dtd">
<!-- Generated by graphviz version 7.1.0 (0)
 -->
<!-- Title: G Pages: 1 -->
<svg width="792pt" height="1211pt"
 viewBox="0.00 0.00 791.63 1210.79" xmlns="http://www.w3.org/2000/svg" xmlns:xlink="http://www.w3.org/1999/xlink">
<g id="graph0" class="graph" transform="scale(1 1) rotate(0) translate(4 1206.79)">
<title>G</title><style>.edge>path:hover{stroke-width:8}</style>
<polygon fill="white" stroke="none" points="-4,4 -4,-1206.79 787.63,-1206.79 787.63,4 -4,4"/>
<!-- planager___main__ -->
<g id="node1" class="node">
<title>planager___main__</title><style>.edge>path:hover{stroke-width:8}</style>
<ellipse fill="#ac4949" stroke="black" cx="250.13" cy="-21.21" rx="43.68" ry="21.43"/>
<text text-anchor="middle" x="250.13" y="-24.21" font-family="Helvetica,sans-Serif" font-size="10.00" fill="#ffffff">planager.</text>
<text text-anchor="middle" x="250.13" y="-13.21" font-family="Helvetica,sans-Serif" font-size="10.00" fill="#ffffff">__main__</text>
</g>
<!-- planager_config -->
<g id="node2" class="node">
<title>planager_config</title><style>.edge>path:hover{stroke-width:8}</style>
<ellipse fill="#ce3b3b" stroke="black" cx="357.13" cy="-178.07" rx="43.68" ry="21.43"/>
<text text-anchor="middle" x="357.13" y="-181.07" font-family="Helvetica,sans-Serif" font-size="10.00" fill="#ffffff">planager.</text>
<text text-anchor="middle" x="357.13" y="-170.07" font-family="Helvetica,sans-Serif" font-size="10.00" fill="#ffffff">config</text>
</g>
<!-- planager_derivation -->
<g id="node3" class="node">
<title>planager_derivation</title><style>.edge>path:hover{stroke-width:8}</style>
<ellipse fill="#b83d3d" stroke="black" cx="250.13" cy="-99.64" rx="46.84" ry="21.43"/>
<text text-anchor="middle" x="250.13" y="-102.64" font-family="Helvetica,sans-Serif" font-size="10.00" fill="#ffffff">planager.</text>
<text text-anchor="middle" x="250.13" y="-91.64" font-family="Helvetica,sans-Serif" font-size="10.00" fill="#ffffff">derivation</text>
</g>
<!-- planager_config&#45;&gt;planager_derivation -->
<g id="edge1" class="edge">
<title>planager_config&#45;&gt;planager_derivation</title><style>.edge>path:hover{stroke-width:8}</style>
<path fill="none" stroke="black" d="M333.12,-159.91C318.59,-149.54 299.85,-136.15 283.85,-124.73"/>
<polygon fill="#ce3b3b" stroke="black" points="286.21,-122.11 276.04,-119.14 282.14,-127.8 286.21,-122.11"/>
</g>
<!-- planager_logger -->
<g id="node15" class="node">
<title>planager_logger</title><style>.edge>path:hover{stroke-width:8}</style>
<ellipse fill="#b34c4c" stroke="black" cx="359.13" cy="-99.64" rx="43.68" ry="21.43"/>
<text text-anchor="middle" x="359.13" y="-102.64" font-family="Helvetica,sans-Serif" font-size="10.00" fill="#ffffff">planager.</text>
<text text-anchor="middle" x="359.13" y="-91.64" font-family="Helvetica,sans-Serif" font-size="10.00" fill="#ffffff">logger</text>
</g>
<!-- planager_config&#45;&gt;planager_logger -->
<g id="edge2" class="edge">
<title>planager_config&#45;&gt;planager_logger</title><style>.edge>path:hover{stroke-width:8}</style>
<path fill="none" stroke="black" d="M357.68,-156.18C357.86,-149.02 358.08,-140.83 358.28,-132.98"/>
<polygon fill="#ce3b3b" stroke="black" points="361.78,-133.1 358.54,-123.01 354.78,-132.92 361.78,-133.1"/>
</g>
<!-- planager_derivation&#45;&gt;planager___main__ -->
<g id="edge3" class="edge">
<title>planager_derivation&#45;&gt;planager___main__</title><style>.edge>path:hover{stroke-width:8}</style>
<path fill="none" stroke="black" d="M250.13,-77.76C250.13,-70.59 250.13,-62.4 250.13,-54.55"/>
<polygon fill="#b83d3d" stroke="black" points="253.63,-54.59 250.13,-44.59 246.63,-54.59 253.63,-54.59"/>
</g>
<!-- planager_entity -->
<g id="node4" class="node">
<title>planager_entity</title><style>.edge>path:hover{stroke-width:8}</style>
<ellipse fill="#9f0404" stroke="black" cx="438.13" cy="-706.42" rx="43.68" ry="21.43"/>
<text text-anchor="middle" x="438.13" y="-709.42" font-family="Helvetica,sans-Serif" font-size="10.00" fill="#ffffff">planager.</text>
<text text-anchor="middle" x="438.13" y="-698.42" font-family="Helvetica,sans-Serif" font-size="10.00" fill="#ffffff">entity</text>
</g>
<!-- planager_operator_patcher_plan_patcher -->
<g id="node18" class="node">
<title>planager_operator_patcher_plan_patcher</title><style>.edge>path:hover{stroke-width:8}</style>
<ellipse fill="#c04040" stroke="black" cx="291.13" cy="-538.44" rx="56.64" ry="36.54"/>
<text text-anchor="middle" x="291.13" y="-552.44" font-family="Helvetica,sans-Serif" font-size="10.00" fill="#ffffff">planager.</text>
<text text-anchor="middle" x="291.13" y="-541.44" font-family="Helvetica,sans-Serif" font-size="10.00" fill="#ffffff">operator.</text>
<text text-anchor="middle" x="291.13" y="-530.44" font-family="Helvetica,sans-Serif" font-size="10.00" fill="#ffffff">patcher.</text>
<text text-anchor="middle" x="291.13" y="-519.44" font-family="Helvetica,sans-Serif" font-size="10.00" fill="#ffffff">plan_patcher</text>
</g>
<!-- planager_entity&#45;&gt;planager_operator_patcher_plan_patcher -->
<g id="edge4" class="edge">
<title>planager_entity&#45;&gt;planager_operator_patcher_plan_patcher</title><style>.edge>path:hover{stroke-width:8}</style>
<path fill="none" stroke="black" d="M438.13,-611.21C438.13,-571.81 392.48,-592.61 357.13,-575.21 352.67,-573.01 348.07,-570.68 343.48,-568.29"/>
<polygon fill="#9f0404" stroke="black" points="345.3,-565.29 334.82,-563.73 342.03,-571.49 345.3,-565.29"/>
</g>
<!-- planager_operator_patcher_schedule_patcher -->
<g id="node19" class="node">
<title>planager_operator_patcher_schedule_patcher</title><style>.edge>path:hover{stroke-width:8}</style>
<ellipse fill="#c04040" stroke="black" cx="438.13" cy="-538.44" rx="72.25" ry="36.54"/>
<text text-anchor="middle" x="438.13" y="-552.44" font-family="Helvetica,sans-Serif" font-size="10.00" fill="#ffffff">planager.</text>
<text text-anchor="middle" x="438.13" y="-541.44" font-family="Helvetica,sans-Serif" font-size="10.00" fill="#ffffff">operator.</text>
<text text-anchor="middle" x="438.13" y="-530.44" font-family="Helvetica,sans-Serif" font-size="10.00" fill="#ffffff">patcher.</text>
<text text-anchor="middle" x="438.13" y="-519.44" font-family="Helvetica,sans-Serif" font-size="10.00" fill="#ffffff">schedule_patcher</text>
</g>
<!-- planager_entity&#45;&gt;planager_operator_patcher_schedule_patcher -->
<g id="edge5" class="edge">
<title>planager_entity&#45;&gt;planager_operator_patcher_schedule_patcher</title><style>.edge>path:hover{stroke-width:8}</style>
<path fill="none" stroke="black" d="M438.13,-611.21C438.13,-603.25 438.13,-594.79 438.13,-586.58"/>
<polygon fill="#9f0404" stroke="black" points="441.63,-586.73 438.13,-576.73 434.63,-586.73 441.63,-586.73"/>
</g>
<!-- planager_operator_patcher_task_patcher -->
<g id="node20" class="node">
<title>planager_operator_patcher_task_patcher</title><style>.edge>path:hover{stroke-width:8}</style>
<ellipse fill="#c04040" stroke="black" cx="585.13" cy="-538.44" rx="56.64" ry="36.54"/>
<text text-anchor="middle" x="585.13" y="-552.44" font-family="Helvetica,sans-Serif" font-size="10.00" fill="#ffffff">planager.</text>
<text text-anchor="middle" x="585.13" y="-541.44" font-family="Helvetica,sans-Serif" font-size="10.00" fill="#ffffff">operator.</text>
<text text-anchor="middle" x="585.13" y="-530.44" font-family="Helvetica,sans-Serif" font-size="10.00" fill="#ffffff">patcher.</text>
<text text-anchor="middle" x="585.13" y="-519.44" font-family="Helvetica,sans-Serif" font-size="10.00" fill="#ffffff">task_patcher</text>
</g>
<!-- planager_entity&#45;&gt;planager_operator_patcher_task_patcher -->
<g id="edge6" class="edge">
<title>planager_entity&#45;&gt;planager_operator_patcher_task_patcher</title><style>.edge>path:hover{stroke-width:8}</style>
<path fill="none" stroke="black" d="M438.13,-611.21C438.13,-571.81 483.78,-592.61 519.13,-575.21 523.59,-573.01 528.19,-570.68 532.78,-568.29"/>
<polygon fill="#9f0404" stroke="black" points="534.23,-571.49 541.44,-563.73 530.96,-565.29 534.23,-571.49"/>
</g>
<!-- planager_operator_planner -->
<g id="node21" class="node">
<title>planager_operator_planner</title><style>.edge>path:hover{stroke-width:8}</style>
<ellipse fill="#b83d3d" stroke="black" cx="250.13" cy="-342.7" rx="43.68" ry="28.98"/>
<text text-anchor="middle" x="250.13" y="-351.2" font-family="Helvetica,sans-Serif" font-size="10.00" fill="#ffffff">planager.</text>
<text text-anchor="middle" x="250.13" y="-340.2" font-family="Helvetica,sans-Serif" font-size="10.00" fill="#ffffff">operator.</text>
<text text-anchor="middle" x="250.13" y="-329.2" font-family="Helvetica,sans-Serif" font-size="10.00" fill="#ffffff">planner</text>
</g>
<!-- planager_entity&#45;&gt;planager_operator_planner -->
<g id="edge7" class="edge">
<title>planager_entity&#45;&gt;planager_operator_planner</title><style>.edge>path:hover{stroke-width:8}</style>
<path fill="none" stroke="black" d="M250.13,-435.68C250.49,-418.46 250.55,-399.43 250.5,-383.17"/>
<polygon fill="#9f0404" stroke="black" points="254,-383.38 250.45,-373.39 247,-383.41 254,-383.38"/>
</g>
<!-- planager_operator_scheduler -->
<g id="node22" class="node">
<title>planager_operator_scheduler</title><style>.edge>path:hover{stroke-width:8}</style>
<ellipse fill="#b83d3d" stroke="black" cx="395.13" cy="-342.7" rx="45.01" ry="28.98"/>
<text text-anchor="middle" x="395.13" y="-351.2" font-family="Helvetica,sans-Serif" font-size="10.00" fill="#ffffff">planager.</text>
<text text-anchor="middle" x="395.13" y="-340.2" font-family="Helvetica,sans-Serif" font-size="10.00" fill="#ffffff">operator.</text>
<text text-anchor="middle" x="395.13" y="-329.2" font-family="Helvetica,sans-Serif" font-size="10.00" fill="#ffffff">scheduler</text>
</g>
<!-- planager_entity&#45;&gt;planager_operator_scheduler -->
<g id="edge8" class="edge">
<title>planager_entity&#45;&gt;planager_operator_scheduler</title><style>.edge>path:hover{stroke-width:8}</style>
<path fill="none" stroke="black" d="M438.13,-611.21C438.13,-563.21 620.14,-611.87 651.13,-575.21 672.23,-550.25 667.06,-530.21 651.13,-501.67 607.68,-423.8 508.3,-379.53 446.94,-358.68"/>
<polygon fill="#9f0404" stroke="black" points="448.34,-355.46 437.75,-355.65 446.15,-362.11 448.34,-355.46"/>
</g>
<!-- planager_planager -->
<g id="node23" class="node">
<title>planager_planager</title><style>.edge>path:hover{stroke-width:8}</style>
<ellipse fill="#b83d3d" stroke="black" cx="250.13" cy="-178.07" rx="43.68" ry="21.43"/>
<text text-anchor="middle" x="250.13" y="-181.07" font-family="Helvetica,sans-Serif" font-size="10.00" fill="#ffffff">planager.</text>
<text text-anchor="middle" x="250.13" y="-170.07" font-family="Helvetica,sans-Serif" font-size="10.00" fill="#ffffff">planager</text>
</g>
<!-- planager_entity&#45;&gt;planager_planager -->
<g id="edge9" class="edge">
<title>planager_entity&#45;&gt;planager_planager</title><style>.edge>path:hover{stroke-width:8}</style>
<path fill="none" stroke="black" d="M438.32,-684.69C438.46,-665.8 438.54,-637.13 438.13,-612.21"/>
<path fill="none" stroke="black" d="M438.13,-611.21C436.7,-563.23 256.12,-611.87 225.13,-575.21 204.03,-550.25 219.08,-533.79 225.13,-501.67 230.78,-471.67 249.48,-468.21 250.13,-437.68"/>
<path fill="none" stroke="black" d="M250.13,-435.68C248.67,-398.78 209.65,-406.43 197.13,-371.69 188.39,-347.44 192.33,-339.02 197.13,-313.71 204.21,-276.4 221.41,-236.2 234.31,-209.54"/>
<polygon fill="#9f0404" stroke="black" points="237.39,-211.2 238.69,-200.69 231.12,-208.1 237.39,-211.2"/>
</g>
<!-- planager_entity_container -->
<g id="node5" class="node">
<title>planager_entity_container</title><style>.edge>path:hover{stroke-width:8}</style>
<ellipse fill="#e72222" stroke="black" cx="98.13" cy="-1056.48" rx="43.68" ry="28.98"/>
<text text-anchor="middle" x="98.13" y="-1064.98" font-family="Helvetica,sans-Serif" font-size="10.00" fill="#ffffff">planager.</text>
<text text-anchor="middle" x="98.13" y="-1053.98" font-family="Helvetica,sans-Serif" font-size="10.00" fill="#ffffff">entity.</text>
<text text-anchor="middle" x="98.13" y="-1042.98" font-family="Helvetica,sans-Serif" font-size="10.00" fill="#ffffff">container</text>
</g>
<!-- planager_entity_container&#45;&gt;planager_entity -->
<g id="edge10" class="edge">
<title>planager_entity_container&#45;&gt;planager_entity</title><style>.edge>path:hover{stroke-width:8}</style>
<path fill="none" stroke="black" d="M84.4,-1028.81C74.73,-1007.49 63.6,-976.53 64.13,-947.95"/>
<path fill="none" stroke="black" d="M64.13,-945.95C65.01,-898.16 30.7,-872.57 64.13,-838.41"/>
</g>
<!-- planager_entity_patch_plan_patch -->
<g id="node12" class="node">
<title>planager_entity_patch_plan_patch</title><style>.edge>path:hover{stroke-width:8}</style>
<ellipse fill="#b83d3d" stroke="black" cx="141.13" cy="-837.41" rx="49.49" ry="36.54"/>
<text text-anchor="middle" x="141.13" y="-851.41" font-family="Helvetica,sans-Serif" font-size="10.00" fill="#ffffff">planager.</text>
<text text-anchor="middle" x="141.13" y="-840.41" font-family="Helvetica,sans-Serif" font-size="10.00" fill="#ffffff">entity.</text>
<text text-anchor="middle" x="141.13" y="-829.41" font-family="Helvetica,sans-Serif" font-size="10.00" fill="#ffffff">patch.</text>
<text text-anchor="middle" x="141.13" y="-818.41" font-family="Helvetica,sans-Serif" font-size="10.00" fill="#ffffff">plan_patch</text>
</g>
<!-- planager_entity_container&#45;&gt;planager_entity_patch_plan_patch -->
<g id="edge11" class="edge">
<title>planager_entity_container&#45;&gt;planager_entity_patch_plan_patch</title><style>.edge>path:hover{stroke-width:8}</style>
<path fill="none" stroke="black" d="M64.13,-945.95C64.65,-917.95 82.15,-892.22 100.33,-872.95"/>
<polygon fill="#e72222" stroke="black" points="102.76,-875.47 107.33,-865.91 97.8,-870.54 102.76,-875.47"/>
</g>
<!-- planager_entity_container_projects -->
<g id="node6" class="node">
<title>planager_entity_container_projects</title><style>.edge>path:hover{stroke-width:8}</style>
<ellipse fill="#b42d2d" stroke="black" cx="438.13" cy="-946.95" rx="45.92" ry="36.54"/>
<text text-anchor="middle" x="438.13" y="-960.95" font-family="Helvetica,sans-Serif" font-size="10.00" fill="#ffffff">planager.</text>
<text text-anchor="middle" x="438.13" y="-949.95" font-family="Helvetica,sans-Serif" font-size="10.00" fill="#ffffff">entity.</text>
<text text-anchor="middle" x="438.13" y="-938.95" font-family="Helvetica,sans-Serif" font-size="10.00" fill="#ffffff">container.</text>
<text text-anchor="middle" x="438.13" y="-927.95" font-family="Helvetica,sans-Serif" font-size="10.00" fill="#ffffff">projects</text>
</g>
<!-- planager_entity_container_projects&#45;&gt;planager_entity -->
<g id="edge12" class="edge">
<title>planager_entity_container_projects&#45;&gt;planager_entity</title><style>.edge>path:hover{stroke-width:8}</style>
<path fill="none" stroke="black" d="M435.25,-910.35C434.26,-889.29 434.22,-862.17 438.13,-838.41"/>
</g>
<!-- planager_entity_container_roadmaps -->
<g id="node7" class="node">
<title>planager_entity_container_roadmaps</title><style>.edge>path:hover{stroke-width:8}</style>
<ellipse fill="#b83d3d" stroke="black" cx="512.13" cy="-837.41" rx="45.92" ry="36.54"/>
<text text-anchor="middle" x="512.13" y="-851.41" font-family="Helvetica,sans-Serif" font-size="10.00" fill="#ffffff">planager.</text>
<text text-anchor="middle" x="512.13" y="-840.41" font-family="Helvetica,sans-Serif" font-size="10.00" fill="#ffffff">entity.</text>
<text text-anchor="middle" x="512.13" y="-829.41" font-family="Helvetica,sans-Serif" font-size="10.00" fill="#ffffff">container.</text>
<text text-anchor="middle" x="512.13" y="-818.41" font-family="Helvetica,sans-Serif" font-size="10.00" fill="#ffffff">roadmaps</text>
</g>
<!-- planager_entity_container_projects&#45;&gt;planager_entity_container_roadmaps -->
<g id="edge13" class="edge">
<title>planager_entity_container_projects&#45;&gt;planager_entity_container_roadmaps</title><style>.edge>path:hover{stroke-width:8}</style>
<path fill="none" stroke="black" d="M459.93,-914.26C467.46,-903.32 476,-890.91 483.97,-879.34"/>
<polygon fill="#b42d2d" stroke="black" points="486.84,-881.33 489.63,-871.11 481.07,-877.36 486.84,-881.33"/>
</g>
<!-- planager_entity_container_roadmaps&#45;&gt;planager_entity -->
<g id="edge14" class="edge">
<title>planager_entity_container_roadmaps&#45;&gt;planager_entity</title><style>.edge>path:hover{stroke-width:8}</style>
<path fill="none" stroke="black" d="M477.79,-812.64C456.88,-796.74 434.78,-776.61 438.13,-764.64"/>
</g>
<!-- planager_entity_container_routines -->
<g id="node8" class="node">
<title>planager_entity_container_routines</title><style>.edge>path:hover{stroke-width:8}</style>
<ellipse fill="#c24747" stroke="black" cx="254.13" cy="-837.41" rx="45.92" ry="36.54"/>
<text text-anchor="middle" x="254.13" y="-851.41" font-family="Helvetica,sans-Serif" font-size="10.00" fill="#ffffff">planager.</text>
<text text-anchor="middle" x="254.13" y="-840.41" font-family="Helvetica,sans-Serif" font-size="10.00" fill="#ffffff">entity.</text>
<text text-anchor="middle" x="254.13" y="-829.41" font-family="Helvetica,sans-Serif" font-size="10.00" fill="#ffffff">container.</text>
<text text-anchor="middle" x="254.13" y="-818.41" font-family="Helvetica,sans-Serif" font-size="10.00" fill="#ffffff">routines</text>
</g>
<!-- planager_entity_container_routines&#45;&gt;planager_entity -->
<g id="edge15" class="edge">
<title>planager_entity_container_routines&#45;&gt;planager_entity</title><style>.edge>path:hover{stroke-width:8}</style>
<path fill="none" stroke="black" d="M287.83,-812.21C294.67,-807.96 301.97,-803.87 309.13,-800.64 363.37,-776.13 422.09,-821.96 438.13,-764.64"/>
</g>
<!-- planager_entity_container_schedules -->
<g id="node9" class="node">
<title>planager_entity_container_schedules</title><style>.edge>path:hover{stroke-width:8}</style>
<ellipse fill="#c24747" stroke="black" cx="364.13" cy="-837.41" rx="45.92" ry="36.54"/>
<text text-anchor="middle" x="364.13" y="-851.41" font-family="Helvetica,sans-Serif" font-size="10.00" fill="#ffffff">planager.</text>
<text text-anchor="middle" x="364.13" y="-840.41" font-family="Helvetica,sans-Serif" font-size="10.00" fill="#ffffff">entity.</text>
<text text-anchor="middle" x="364.13" y="-829.41" font-family="Helvetica,sans-Serif" font-size="10.00" fill="#ffffff">container.</text>
<text text-anchor="middle" x="364.13" y="-818.41" font-family="Helvetica,sans-Serif" font-size="10.00" fill="#ffffff">schedules</text>
</g>
<!-- planager_entity_container_schedules&#45;&gt;planager_entity -->
<g id="edge16" class="edge">
<title>planager_entity_container_schedules&#45;&gt;planager_entity</title><style>.edge>path:hover{stroke-width:8}</style>
<path fill="none" stroke="black" d="M400.09,-814.36C416,-802.1 432.39,-785.15 438.13,-764.64"/>
</g>
<!-- planager_entity_container_tasks -->
<g id="node10" class="node">
<title>planager_entity_container_tasks</title><style>.edge>path:hover{stroke-width:8}</style>
<ellipse fill="#db2f2f" stroke="black" cx="364.13" cy="-1056.48" rx="45.92" ry="36.54"/>
<text text-anchor="middle" x="364.13" y="-1070.48" font-family="Helvetica,sans-Serif" font-size="10.00" fill="#ffffff">planager.</text>
<text text-anchor="middle" x="364.13" y="-1059.48" font-family="Helvetica,sans-Serif" font-size="10.00" fill="#ffffff">entity.</text>
<text text-anchor="middle" x="364.13" y="-1048.48" font-family="Helvetica,sans-Serif" font-size="10.00" fill="#ffffff">container.</text>
<text text-anchor="middle" x="364.13" y="-1037.48" font-family="Helvetica,sans-Serif" font-size="10.00" fill="#ffffff">tasks</text>
</g>
<!-- planager_entity_container_tasks&#45;&gt;planager_entity -->
<g id="edge17" class="edge">
<title>planager_entity_container_tasks&#45;&gt;planager_entity</title><style>.edge>path:hover{stroke-width:8}</style>
<path fill="none" stroke="black" d="M364.13,-945.95C358.83,-928.74 372.43,-924.65 383.13,-910.18 407.03,-877.87 431.61,-878.06 438.13,-838.41"/>
<path fill="none" stroke="black" d="M438.13,-836.41C443.3,-804.93 429.53,-795.35 438.13,-764.64"/>
</g>
<!-- planager_entity_container_tasks&#45;&gt;planager_entity_container_projects -->
<g id="edge18" class="edge">
<title>planager_entity_container_tasks&#45;&gt;planager_entity_container_projects</title><style>.edge>path:hover{stroke-width:8}</style>
<path fill="none" stroke="black" d="M385.93,-1023.8C393.46,-1012.86 402,-1000.45 409.97,-988.87"/>
<polygon fill="#db2f2f" stroke="black" points="412.84,-990.87 415.63,-980.65 407.07,-986.9 412.84,-990.87"/>
</g>
<!-- planager_entity_container_tasks&#45;&gt;planager_entity_patch_plan_patch -->
<g id="edge19" class="edge">
<title>planager_entity_container_tasks&#45;&gt;planager_entity_patch_plan_patch</title><style>.edge>path:hover{stroke-width:8}</style>
<path fill="none" stroke="black" d="M369.32,-1019.83C371.16,-998.51 371.27,-971.14 364.13,-947.95"/>
<path fill="none" stroke="black" d="M364.13,-945.95C340.6,-869.51 270.01,-911.21 199.13,-874.18 195.45,-872.25 191.7,-870.19 187.95,-868.05"/>
<polygon fill="#db2f2f" stroke="black" points="189.82,-865.09 179.42,-863.06 186.28,-871.13 189.82,-865.09"/>
</g>
<!-- planager_entity_patch -->
<g id="node11" class="node">
<title>planager_entity_patch</title><style>.edge>path:hover{stroke-width:8}</style>
<ellipse fill="#ce3b3b" stroke="black" cx="232.13" cy="-1166.02" rx="43.68" ry="28.98"/>
<text text-anchor="middle" x="232.13" y="-1174.52" font-family="Helvetica,sans-Serif" font-size="10.00" fill="#ffffff">planager.</text>
<text text-anchor="middle" x="232.13" y="-1163.52" font-family="Helvetica,sans-Serif" font-size="10.00" fill="#ffffff">entity.</text>
<text text-anchor="middle" x="232.13" y="-1152.52" font-family="Helvetica,sans-Serif" font-size="10.00" fill="#ffffff">patch</text>
</g>
<!-- planager_entity_patch&#45;&gt;planager_entity -->
<g id="edge20" class="edge">
<title>planager_entity_patch&#45;&gt;planager_entity</title><style>.edge>path:hover{stroke-width:8}</style>
<path fill="none" stroke="black" d="M188.74,-1161.98C144.27,-1156.29 77.24,-1139.97 45.13,-1093.25 -19.21,-999.65 -15.31,-919.59 64.13,-838.41"/>
<path fill="none" stroke="black" d="M64.13,-836.41C77.24,-824.07 68.19,-810.68 83.13,-800.64 148.94,-756.4 416.76,-841 438.13,-764.64"/>
<path fill="none" stroke="black" d="M438.13,-763.64C440.29,-755.93 441.06,-747.4 441.12,-739.36"/>
<polygon fill="#ce3b3b" stroke="black" points="444.62,-739.48 440.81,-729.59 437.63,-739.7 444.62,-739.48"/>
</g>
<!-- planager_entity_patch&#45;&gt;planager_entity_container_projects -->
<g id="edge21" class="edge">
<title>planager_entity_patch&#45;&gt;planager_entity_container_projects</title><style>.edge>path:hover{stroke-width:8}</style>
<path fill="none" stroke="black" d="M275.56,-1160.94C319.05,-1154.39 384.38,-1137.37 419.13,-1093.25 440.77,-1065.78 444.65,-1025.93 443.6,-994.9"/>
<polygon fill="#ce3b3b" stroke="black" points="447.1,-994.79 443.07,-985 440.11,-995.17 447.1,-994.79"/>
</g>
<!-- planager_entity_patch_plan_patch&#45;&gt;planager_entity -->
<g id="edge22" class="edge">
<title>planager_entity_patch_plan_patch&#45;&gt;planager_entity</title><style>.edge>path:hover{stroke-width:8}</style>
<path fill="none" stroke="black" d="M176.49,-811.53C183.72,-807.34 191.46,-803.44 199.13,-800.64 249.56,-782.17 423.65,-816.36 438.13,-764.64"/>
</g>
<!-- planager_entity_patch_schedule_patch -->
<g id="node13" class="node">
<title>planager_entity_patch_schedule_patch</title><style>.edge>path:hover{stroke-width:8}</style>
<ellipse fill="#c24747" stroke="black" cx="641.13" cy="-837.41" rx="65.11" ry="36.54"/>
<text text-anchor="middle" x="641.13" y="-851.41" font-family="Helvetica,sans-Serif" font-size="10.00" fill="#ffffff">planager.</text>
<text text-anchor="middle" x="641.13" y="-840.41" font-family="Helvetica,sans-Serif" font-size="10.00" fill="#ffffff">entity.</text>
<text text-anchor="middle" x="641.13" y="-829.41" font-family="Helvetica,sans-Serif" font-size="10.00" fill="#ffffff">patch.</text>
<text text-anchor="middle" x="641.13" y="-818.41" font-family="Helvetica,sans-Serif" font-size="10.00" fill="#ffffff">schedule_patch</text>
</g>
<!-- planager_entity_patch_schedule_patch&#45;&gt;planager_entity -->
<g id="edge23" class="edge">
<title>planager_entity_patch_schedule_patch&#45;&gt;planager_entity</title><style>.edge>path:hover{stroke-width:8}</style>
<path fill="none" stroke="black" d="M593.91,-812.04C585.13,-807.95 575.94,-803.96 567.13,-800.64 511.45,-779.6 422.09,-821.96 438.13,-764.64"/>
</g>
<!-- planager_entity_patch_task_patch -->
<g id="node14" class="node">
<title>planager_entity_patch_task_patch</title><style>.edge>path:hover{stroke-width:8}</style>
<ellipse fill="#ce3b3b" stroke="black" cx="734.13" cy="-1166.02" rx="49.49" ry="36.54"/>
<text text-anchor="middle" x="734.13" y="-1180.02" font-family="Helvetica,sans-Serif" font-size="10.00" fill="#ffffff">planager.</text>
<text text-anchor="middle" x="734.13" y="-1169.02" font-family="Helvetica,sans-Serif" font-size="10.00" fill="#ffffff">entity.</text>
<text text-anchor="middle" x="734.13" y="-1158.02" font-family="Helvetica,sans-Serif" font-size="10.00" fill="#ffffff">patch.</text>
<text text-anchor="middle" x="734.13" y="-1147.02" font-family="Helvetica,sans-Serif" font-size="10.00" fill="#ffffff">task_patch</text>
</g>
<!-- planager_entity_patch_task_patch&#45;&gt;planager_entity -->
<g id="edge24" class="edge">
<title>planager_entity_patch_task_patch&#45;&gt;planager_entity</title><style>.edge>path:hover{stroke-width:8}</style>
<path fill="none" stroke="black" d="M734.13,-1055.48C683.01,-954.06 793.21,-883.12 715.13,-800.64 672.46,-755.56 421.4,-824.41 438.13,-764.64"/>
</g>
<!-- planager_entity_patch_task_patch&#45;&gt;planager_entity_container_projects -->
<g id="edge25" class="edge">
<title>planager_entity_patch_task_patch&#45;&gt;planager_entity_container_projects</title><style>.edge>path:hover{stroke-width:8}</style>
<path fill="none" stroke="black" d="M741.87,-1129.76C744.87,-1107.82 745.31,-1079.66 734.13,-1057.48"/>
<path fill="none" stroke="black" d="M734.13,-1055.48C691.15,-970.21 569.04,-951.24 495.78,-947.79"/>
<polygon fill="#ce3b3b" stroke="black" points="496.1,-944.3 485.97,-947.42 495.83,-951.29 496.1,-944.3"/>
</g>
<!-- planager_operator -->
<g id="node16" class="node">
<title>planager_operator</title><style>.edge>path:hover{stroke-width:8}</style>
<ellipse fill="#b03a3a" stroke="black" cx="322.13" cy="-256.49" rx="43.68" ry="21.43"/>
<text text-anchor="middle" x="322.13" y="-259.49" font-family="Helvetica,sans-Serif" font-size="10.00" fill="#ffffff">planager.</text>
<text text-anchor="middle" x="322.13" y="-248.49" font-family="Helvetica,sans-Serif" font-size="10.00" fill="#ffffff">operator</text>
</g>
<!-- planager_operator&#45;&gt;planager_planager -->
<g id="edge26" class="edge">
<title>planager_operator&#45;&gt;planager_planager</title><style>.edge>path:hover{stroke-width:8}</style>
<path fill="none" stroke="black" d="M304.33,-236.6C295.68,-227.41 285.12,-216.21 275.63,-206.13"/>
<polygon fill="#b03a3a" stroke="black" points="278.42,-203.99 269.01,-199.11 273.32,-208.79 278.42,-203.99"/>
</g>
<!-- planager_operator_patcher -->
<g id="node17" class="node">
<title>planager_operator_patcher</title><style>.edge>path:hover{stroke-width:8}</style>
<ellipse fill="#c82323" stroke="black" cx="395.13" cy="-436.68" rx="43.68" ry="28.98"/>
<text text-anchor="middle" x="395.13" y="-445.18" font-family="Helvetica,sans-Serif" font-size="10.00" fill="#ffffff">planager.</text>
<text text-anchor="middle" x="395.13" y="-434.18" font-family="Helvetica,sans-Serif" font-size="10.00" fill="#ffffff">operator.</text>
<text text-anchor="middle" x="395.13" y="-423.18" font-family="Helvetica,sans-Serif" font-size="10.00" fill="#ffffff">patcher</text>
</g>
<!-- planager_operator_patcher&#45;&gt;planager_operator -->
<g id="edge27" class="edge">
<title>planager_operator_patcher&#45;&gt;planager_operator</title><style>.edge>path:hover{stroke-width:8}</style>
<path fill="none" stroke="black" d="M370.41,-412.64C359.75,-401.32 348.14,-386.86 341.13,-371.69 329.14,-345.74 324.61,-313.38 322.95,-289.74"/>
<polygon fill="#c82323" stroke="black" points="326.44,-289.56 322.4,-279.77 319.45,-289.94 326.44,-289.56"/>
</g>
<!-- planager_operator_patcher&#45;&gt;planager_operator_planner -->
<g id="edge28" class="edge">
<title>planager_operator_patcher&#45;&gt;planager_operator_planner</title><style>.edge>path:hover{stroke-width:8}</style>
<path fill="none" stroke="black" d="M364.02,-415.95C342.62,-402.37 313.97,-384.19 290.76,-369.47"/>
<polygon fill="#c82323" stroke="black" points="292.78,-366.61 282.46,-364.21 289.03,-372.52 292.78,-366.61"/>
</g>
<!-- planager_operator_patcher&#45;&gt;planager_operator_scheduler -->
<g id="edge29" class="edge">
<title>planager_operator_patcher&#45;&gt;planager_operator_scheduler</title><style>.edge>path:hover{stroke-width:8}</style>
<path fill="none" stroke="black" d="M395.13,-407.33C395.13,-399.81 395.13,-391.55 395.13,-383.54"/>
<polygon fill="#c82323" stroke="black" points="398.63,-383.62 395.13,-373.62 391.63,-383.62 398.63,-383.62"/>
</g>
<!-- planager_operator_patcher_plan_patcher&#45;&gt;planager_operator_patcher -->
<g id="edge30" class="edge">
<title>planager_operator_patcher_plan_patcher&#45;&gt;planager_operator_patcher</title><style>.edge>path:hover{stroke-width:8}</style>
<path fill="none" stroke="black" d="M322.33,-507.51C335.09,-495.27 349.86,-481.11 362.74,-468.75"/>
<polygon fill="#c04040" stroke="black" points="365,-471.43 369.8,-461.98 360.16,-466.38 365,-471.43"/>
</g>
<!-- planager_operator_patcher_schedule_patcher&#45;&gt;planager_operator_patcher -->
<g id="edge31" class="edge">
<title>planager_operator_patcher_schedule_patcher&#45;&gt;planager_operator_patcher</title><style>.edge>path:hover{stroke-width:8}</style>
<path fill="none" stroke="black" d="M422.97,-502.27C419.22,-493.57 415.19,-484.23 411.4,-475.41"/>
<polygon fill="#c04040" stroke="black" points="414.68,-474.2 407.51,-466.41 408.26,-476.97 414.68,-474.2"/>
</g>
<!-- planager_operator_patcher_task_patcher&#45;&gt;planager_operator_patcher -->
<g id="edge32" class="edge">
<title>planager_operator_patcher_task_patcher&#45;&gt;planager_operator_patcher</title><style>.edge>path:hover{stroke-width:8}</style>
<path fill="none" stroke="black" d="M542.24,-514.03C534.56,-509.89 526.62,-505.63 519.13,-501.67 492.83,-487.76 463.22,-472.47 439.53,-460.32"/>
<polygon fill="#c04040" stroke="black" points="441.28,-457.28 430.79,-455.84 438.09,-463.51 441.28,-457.28"/>
</g>
<!-- planager_operator_planner&#45;&gt;planager_operator -->
<g id="edge33" class="edge">
<title>planager_operator_planner&#45;&gt;planager_operator</title><style>.edge>path:hover{stroke-width:8}</style>
<path fill="none" stroke="black" d="M271.34,-316.89C279.81,-306.98 289.6,-295.53 298.32,-285.34"/>
<polygon fill="#b83d3d" stroke="black" points="300.81,-287.81 304.65,-277.93 295.49,-283.26 300.81,-287.81"/>
</g>
<!-- planager_operator_scheduler&#45;&gt;planager_operator -->
<g id="edge34" class="edge">
<title>planager_operator_scheduler&#45;&gt;planager_operator</title><style>.edge>path:hover{stroke-width:8}</style>
<path fill="none" stroke="black" d="M373.62,-316.89C365.03,-306.98 355.11,-295.53 346.27,-285.34"/>
<polygon fill="#b83d3d" stroke="black" points="349.04,-283.19 339.85,-277.93 343.75,-287.78 349.04,-283.19"/>
</g>
<!-- planager_planager&#45;&gt;planager_derivation -->
<g id="edge35" class="edge">
<title>planager_planager&#45;&gt;planager_derivation</title><style>.edge>path:hover{stroke-width:8}</style>
<path fill="none" stroke="black" d="M250.13,-156.18C250.13,-149.02 250.13,-140.83 250.13,-132.98"/>
<polygon fill="#b83d3d" stroke="black" points="253.63,-133.01 250.13,-123.01 246.63,-133.01 253.63,-133.01"/>
</g>
</g>
</svg>
